<?xml version="1.0" standalone="no"?>
<!DOCTYPE svg PUBLIC "-//W3C//DTD SVG 20010904//EN"
 "http://www.w3.org/TR/2001/REC-SVG-20010904/DTD/svg10.dtd">
<svg version="1.0" xmlns="http://www.w3.org/2000/svg"
 width="512.000000pt" height="512.000000pt" viewBox="0 0 512.000000 512.000000"
 preserveAspectRatio="xMidYMid meet">

<g transform="translate(0.000000,512.000000) scale(0.100000,-0.100000)"
fill="#87CEEB" stroke="none">
<path d="M2360 4799 c-205 -21 -437 -81 -644 -165 -545 -223 -1007 -685 -1230
-1230 -281 -688 -224 -1438 158 -2073 95 -157 191 -277 340 -427 367 -366 814
-585 1336 -655 136 -18 460 -15 595 5 252 38 455 101 680 210 567 275 980 749
1182 1356 74 225 106 432 106 700 0 428 -103 811 -313 1163 -461 774 -1318
1206 -2210 1116z m-508 -1055 c68 -20 138 -75 171 -138 31 -58 31 -184 0 -241
-53 -98 -144 -149 -268 -149 -102 0 -169 27 -225 92 -64 73 -84 163 -55 258
43 147 209 225 377 178z m1602 -724 c97 -25 165 -61 235 -126 101 -94 169
-244 190 -419 6 -52 11 -290 11 -562 l0 -473 -265 0 -264 0 -3 488 c-3 481 -3
488 -26 544 -28 69 -94 133 -149 145 -149 31 -274 -30 -337 -166 -20 -45 -21
-60 -24 -528 l-3 -483 -259 0 -260 0 0 785 0 785 260 0 260 0 0 -112 0 -111
28 39 c73 99 178 171 290 198 86 21 225 20 316 -4z m-1436 -797 l2 -783 -265
0 -265 0 0 778 c0 428 3 782 7 785 4 4 122 6 262 5 l256 -3 3 -782z"/>
</g>
</svg>
