<svg width="98" height="98" viewBox="0 0 98 98" fill="none" xmlns="http://www.w3.org/2000/svg">
<path d="M37.7269 68.8582V42.3855H28.9357V68.8582H37.7279H37.7269ZM33.3331 38.7718C36.3982 38.7718 38.3064 36.739 38.3064 34.1986C38.249 31.6003 36.3982 29.6242 33.3914 29.6242C30.3826 29.6242 28.4175 31.6003 28.4175 34.1984C28.4175 36.7388 30.325 38.7715 33.2755 38.7715H33.3325L33.3331 38.7718ZM42.593 68.8582H51.3836V54.0762C51.3836 53.2861 51.441 52.4939 51.6732 51.9295C52.3085 50.3481 53.7549 48.7111 56.1841 48.7111C59.3644 48.7111 60.6373 51.1385 60.6373 54.6976V68.8582H69.4277V53.6796C69.4277 45.5487 65.0913 41.7649 59.3074 41.7649C54.5655 41.7649 52.4829 44.4176 51.3258 46.2244H51.3843V42.3865H42.5935C42.7082 44.8699 42.5928 68.8591 42.5928 68.8591L42.593 68.8582Z" fill="white"/>
</svg>
